<svg width="54" height="54" viewBox="0 0 54 54" fill="none" xmlns="http://www.w3.org/2000/svg">
<g clip-path="url(#clip0_33_11099)">
<rect width="53.4977" height="53.4978" fill="url(#paint0_linear_33_11099)"/>
<g filter="url(#filter0_f_33_11099)">
<rect width="53.4977" height="53.4977" fill="url(#paint1_linear_33_11099)"/>
</g>
<g filter="url(#filter1_di_33_11099)">
<path d="M27.7979 14.6893C27.282 14.1713 26.137 14.168 25.6244 14.6893C25.112 15.2102 25.0797 16.3722 25.5995 16.8856C26.1194 17.399 27.2748 17.4227 27.7882 16.9029C28.3016 16.3831 28.3135 15.207 27.7979 14.6893Z" fill="#D387FE"/>
<path d="M27.7979 14.6893C27.282 14.1713 26.137 14.168 25.6244 14.6893C25.112 15.2102 25.0797 16.3722 25.5995 16.8856C26.1194 17.399 27.2748 17.4227 27.7882 16.9029C28.3016 16.3831 28.3135 15.207 27.7979 14.6893Z" fill="url(#paint2_linear_33_11099)"/>
</g>
<g filter="url(#filter2_ddi_33_11099)">
<path d="M28.4582 26.1944V20.0037H24.9472V26.1944C22.8682 26.9336 21.3899 28.8739 21.3899 31.1838C21.3899 34.0943 23.746 36.4966 26.7027 36.4966C29.6132 36.4966 32.0155 34.1405 32.0155 31.1838C32.0155 28.8739 30.5372 26.9336 28.4582 26.1944Z" fill="white"/>
<path d="M28.4582 26.1944V20.0037H24.9472V26.1944C22.8682 26.9336 21.3899 28.8739 21.3899 31.1838C21.3899 34.0943 23.746 36.4966 26.7027 36.4966C29.6132 36.4966 32.0155 34.1405 32.0155 31.1838C32.0155 28.8739 30.5372 26.9336 28.4582 26.1944Z" fill="url(#paint3_linear_33_11099)"/>
</g>
<g filter="url(#filter3_ddi_33_11099)">
<path d="M28.042 9.4707C31.553 9.4707 34.3711 12.3349 34.3711 15.7998C34.3711 17.4167 33.7712 18.8952 32.7549 20.0039C36.7277 22.129 39.4071 26.333 39.4072 31.1836C39.4072 38.2058 33.7243 43.8887 26.7021 43.8887C19.6802 43.8884 13.998 38.2056 13.998 31.1836C13.9982 27.0259 15.9849 23.3304 19.0801 21.0205V9.4707H28.042ZM24.9473 26.1943C22.8684 26.9335 21.3897 28.8738 21.3896 31.1836C21.3896 34.0941 23.7464 36.4971 26.7031 36.4971C29.6134 36.4969 32.0156 34.1402 32.0156 31.1836C32.0155 28.8738 30.5369 26.9335 28.458 26.1943V20.0039H24.9473V26.1943ZM27.7979 14.6895C27.2819 14.1714 26.1367 14.1682 25.624 14.6895C25.112 15.2105 25.0799 16.3724 25.5996 16.8857C26.1194 17.399 27.2745 17.4228 27.7881 16.9033C28.3015 16.3835 28.3134 15.2071 27.7979 14.6895Z" fill="#FAFFFF"/>
</g>
<g filter="url(#filter4_f_33_11099)">
<rect x="23.0164" y="11.8192" width="7.46479" height="7.46479" rx="3.11033" fill="white"/>
</g>
<g opacity="0.6">
<path d="M26.8256 13.3413C26.7766 13.2428 26.6291 13.2429 26.5805 13.3416C26.0902 14.338 25.2757 15.1832 24.2508 15.6782C24.1511 15.7263 24.1501 15.8756 24.2494 15.9246C25.2437 16.4152 26.0868 17.2286 26.581 18.2518C26.6292 18.3515 26.7785 18.3525 26.8275 18.2532C27.3181 17.259 28.1315 16.4158 29.1547 15.9217C29.2544 15.8735 29.2555 15.724 29.1564 15.6746C28.1628 15.1791 27.32 14.3354 26.8256 13.3413Z" fill="#D387FE"/>
<path d="M26.8256 13.3413C26.7766 13.2428 26.6291 13.2429 26.5805 13.3416C26.0902 14.338 25.2757 15.1832 24.2508 15.6782C24.1511 15.7263 24.1501 15.8756 24.2494 15.9246C25.2437 16.4152 26.0868 17.2286 26.581 18.2518C26.6292 18.3515 26.7785 18.3525 26.8275 18.2532C27.3181 17.259 28.1315 16.4158 29.1547 15.9217C29.2544 15.8735 29.2555 15.724 29.1564 15.6746C28.1628 15.1791 27.32 14.3354 26.8256 13.3413Z" fill="#D387FE"/>
</g>
<g opacity="0.6" filter="url(#filter5_i_33_11099)">
<path d="M26.8256 13.3413C26.7766 13.2428 26.6291 13.2429 26.5805 13.3416C26.0902 14.338 25.2757 15.1832 24.2508 15.6782C24.1511 15.7263 24.1501 15.8756 24.2494 15.9246C25.2437 16.4152 26.0868 17.2286 26.581 18.2518C26.6292 18.3515 26.7785 18.3525 26.8275 18.2532C27.3181 17.259 28.1315 16.4158 29.1547 15.9217C29.2544 15.8735 29.2555 15.724 29.1564 15.6746C28.1628 15.1791 27.32 14.3354 26.8256 13.3413Z" fill="#D387FE"/>
<path d="M26.8256 13.3413C26.7766 13.2428 26.6291 13.2429 26.5805 13.3416C26.0902 14.338 25.2757 15.1832 24.2508 15.6782C24.1511 15.7263 24.1501 15.8756 24.2494 15.9246C25.2437 16.4152 26.0868 17.2286 26.581 18.2518C26.6292 18.3515 26.7785 18.3525 26.8275 18.2532C27.3181 17.259 28.1315 16.4158 29.1547 15.9217C29.2544 15.8735 29.2555 15.724 29.1564 15.6746C28.1628 15.1791 27.32 14.3354 26.8256 13.3413Z" fill="#D387FE"/>
</g>
<mask id="mask0_33_11099" style="mask-type:alpha" maskUnits="userSpaceOnUse" x="24" y="13" width="6" height="6">
<g opacity="0.6">
<path d="M26.8256 13.3413C26.7766 13.2428 26.6291 13.2429 26.5805 13.3416C26.0902 14.338 25.2757 15.1832 24.2508 15.6782C24.1511 15.7263 24.1501 15.8756 24.2494 15.9246C25.2437 16.4152 26.0868 17.2286 26.581 18.2518C26.6292 18.3515 26.7785 18.3525 26.8275 18.2532C27.3181 17.259 28.1315 16.4158 29.1547 15.9217C29.2544 15.8735 29.2555 15.724 29.1564 15.6746C28.1628 15.1791 27.32 14.3354 26.8256 13.3413Z" fill="#D387FE"/>
<path d="M26.8256 13.3413C26.7766 13.2428 26.6291 13.2429 26.5805 13.3416C26.0902 14.338 25.2757 15.1832 24.2508 15.6782C24.1511 15.7263 24.1501 15.8756 24.2494 15.9246C25.2437 16.4152 26.0868 17.2286 26.581 18.2518C26.6292 18.3515 26.7785 18.3525 26.8275 18.2532C27.3181 17.259 28.1315 16.4158 29.1547 15.9217C29.2544 15.8735 29.2555 15.724 29.1564 15.6746C28.1628 15.1791 27.32 14.3354 26.8256 13.3413Z" fill="#D387FE"/>
</g>
</mask>
<g mask="url(#mask0_33_11099)">
<g style="mix-blend-mode:hard-light" opacity="0.6" filter="url(#filter6_f_33_11099)">
<path d="M26.6162 18.2929C26.6615 18.4055 26.8356 18.4054 26.8804 18.2926C27.2191 17.4399 27.7552 16.7198 28.4219 16.2883C28.504 16.2352 28.505 16.1102 28.4234 16.0563C27.7761 15.6287 27.2228 14.9345 26.8802 14.0626C26.8356 13.949 26.6596 13.9481 26.6144 14.0615C26.2756 14.9111 25.7406 15.6285 25.0757 16.0588C24.9936 16.1119 24.9926 16.237 25.0739 16.2913C25.7205 16.7231 26.2735 17.4421 26.6162 18.2929Z" fill="#D387FE"/>
<path d="M26.6162 18.2929C26.6615 18.4055 26.8356 18.4054 26.8804 18.2926C27.2191 17.4399 27.7552 16.7198 28.4219 16.2883C28.504 16.2352 28.505 16.1102 28.4234 16.0563C27.7761 15.6287 27.2228 14.9345 26.8802 14.0626C26.8356 13.949 26.6596 13.9481 26.6144 14.0615C26.2756 14.9111 25.7406 15.6285 25.0757 16.0588C24.9936 16.1119 24.9926 16.237 25.0739 16.2913C25.7205 16.7231 26.2735 17.4421 26.6162 18.2929Z" fill="url(#paint4_linear_33_11099)"/>
</g>
</g>
</g>
<defs>
<filter id="filter0_f_33_11099" x="-8.21127" y="-8.21127" width="69.9201" height="69.9202" filterUnits="userSpaceOnUse" color-interpolation-filters="sRGB">
<feFlood flood-opacity="0" result="BackgroundImageFix"/>
<feBlend mode="normal" in="SourceGraphic" in2="BackgroundImageFix" result="shape"/>
<feGaussianBlur stdDeviation="4.10563" result="effect1_foregroundBlur_33_11099"/>
</filter>
<filter id="filter1_di_33_11099" x="23.9805" y="13.0554" width="5.44261" height="6.09263" filterUnits="userSpaceOnUse" color-interpolation-filters="sRGB">
<feFlood flood-opacity="0" result="BackgroundImageFix"/>
<feColorMatrix in="SourceAlpha" type="matrix" values="0 0 0 0 0 0 0 0 0 0 0 0 0 0 0 0 0 0 127 0" result="hardAlpha"/>
<feOffset dy="0.622066"/>
<feGaussianBlur stdDeviation="0.622066"/>
<feColorMatrix type="matrix" values="0 0 0 0 0.306645 0 0 0 0 0.100711 0 0 0 0 0.409612 0 0 0 0.25 0"/>
<feBlend mode="normal" in2="BackgroundImageFix" result="effect1_dropShadow_33_11099"/>
<feBlend mode="normal" in="SourceGraphic" in2="effect1_dropShadow_33_11099" result="shape"/>
<feColorMatrix in="SourceAlpha" type="matrix" values="0 0 0 0 0 0 0 0 0 0 0 0 0 0 0 0 0 0 127 0" result="hardAlpha"/>
<feOffset dy="-1.24413"/>
<feGaussianBlur stdDeviation="1.24413"/>
<feComposite in2="hardAlpha" operator="arithmetic" k2="-1" k3="1"/>
<feColorMatrix type="matrix" values="0 0 0 0 0.827451 0 0 0 0 0.529412 0 0 0 0 0.996078 0 0 0 1 0"/>
<feBlend mode="normal" in2="shape" result="effect2_innerShadow_33_11099"/>
</filter>
<filter id="filter2_ddi_33_11099" x="18.9016" y="18.7596" width="15.6023" height="22.0915" filterUnits="userSpaceOnUse" color-interpolation-filters="sRGB">
<feFlood flood-opacity="0" result="BackgroundImageFix"/>
<feColorMatrix in="SourceAlpha" type="matrix" values="0 0 0 0 0 0 0 0 0 0 0 0 0 0 0 0 0 0 127 0" result="hardAlpha"/>
<feOffset dy="1.8662"/>
<feGaussianBlur stdDeviation="1.24413"/>
<feColorMatrix type="matrix" values="0 0 0 0 0.0779492 0 0 0 0 0.462189 0 0 0 0 0.504883 0 0 0 0.55 0"/>
<feBlend mode="normal" in2="BackgroundImageFix" result="effect1_dropShadow_33_11099"/>
<feColorMatrix in="SourceAlpha" type="matrix" values="0 0 0 0 0 0 0 0 0 0 0 0 0 0 0 0 0 0 127 0" result="hardAlpha"/>
<feOffset dy="0.622066"/>
<feGaussianBlur stdDeviation="0.622066"/>
<feColorMatrix type="matrix" values="0 0 0 0 0.100711 0 0 0 0 0.358128 0 0 0 0 0.409612 0 0 0 0.25 0"/>
<feBlend mode="normal" in2="effect1_dropShadow_33_11099" result="effect2_dropShadow_33_11099"/>
<feBlend mode="normal" in="SourceGraphic" in2="effect2_dropShadow_33_11099" result="shape"/>
<feColorMatrix in="SourceAlpha" type="matrix" values="0 0 0 0 0 0 0 0 0 0 0 0 0 0 0 0 0 0 127 0" result="hardAlpha"/>
<feOffset dy="-1.24413"/>
<feGaussianBlur stdDeviation="1.24413"/>
<feComposite in2="hardAlpha" operator="arithmetic" k2="-1" k3="1"/>
<feColorMatrix type="matrix" values="0 0 0 0 0 0 0 0 0 0.8 0 0 0 0 0.87451 0 0 0 0.64 0"/>
<feBlend mode="normal" in2="shape" result="effect3_innerShadow_33_11099"/>
</filter>
<filter id="filter3_ddi_33_11099" x="11.5098" y="8.22657" width="30.3857" height="40.0166" filterUnits="userSpaceOnUse" color-interpolation-filters="sRGB">
<feFlood flood-opacity="0" result="BackgroundImageFix"/>
<feColorMatrix in="SourceAlpha" type="matrix" values="0 0 0 0 0 0 0 0 0 0 0 0 0 0 0 0 0 0 127 0" result="hardAlpha"/>
<feOffset dy="1.8662"/>
<feGaussianBlur stdDeviation="1.24413"/>
<feColorMatrix type="matrix" values="0 0 0 0 0.0779492 0 0 0 0 0.462189 0 0 0 0 0.504883 0 0 0 0.55 0"/>
<feBlend mode="normal" in2="BackgroundImageFix" result="effect1_dropShadow_33_11099"/>
<feColorMatrix in="SourceAlpha" type="matrix" values="0 0 0 0 0 0 0 0 0 0 0 0 0 0 0 0 0 0 127 0" result="hardAlpha"/>
<feOffset dy="0.622066"/>
<feGaussianBlur stdDeviation="0.622066"/>
<feColorMatrix type="matrix" values="0 0 0 0 0.100711 0 0 0 0 0.358128 0 0 0 0 0.409612 0 0 0 0.25 0"/>
<feBlend mode="normal" in2="effect1_dropShadow_33_11099" result="effect2_dropShadow_33_11099"/>
<feBlend mode="normal" in="SourceGraphic" in2="effect2_dropShadow_33_11099" result="shape"/>
<feColorMatrix in="SourceAlpha" type="matrix" values="0 0 0 0 0 0 0 0 0 0 0 0 0 0 0 0 0 0 127 0" result="hardAlpha"/>
<feOffset dy="-1.24413"/>
<feGaussianBlur stdDeviation="1.24413"/>
<feComposite in2="hardAlpha" operator="arithmetic" k2="-1" k3="1"/>
<feColorMatrix type="matrix" values="0 0 0 0 0 0 0 0 0 0.8 0 0 0 0 0.87451 0 0 0 0.64 0"/>
<feBlend mode="normal" in2="shape" result="effect3_innerShadow_33_11099"/>
</filter>
<filter id="filter4_f_33_11099" x="21.5234" y="10.3262" width="10.4508" height="10.4507" filterUnits="userSpaceOnUse" color-interpolation-filters="sRGB">
<feFlood flood-opacity="0" result="BackgroundImageFix"/>
<feBlend mode="normal" in="SourceGraphic" in2="BackgroundImageFix" result="shape"/>
<feGaussianBlur stdDeviation="0.746479" result="effect1_foregroundBlur_33_11099"/>
</filter>
<filter id="filter5_i_33_11099" x="24.1755" y="13.2675" width="5.05444" height="5.05963" filterUnits="userSpaceOnUse" color-interpolation-filters="sRGB">
<feFlood flood-opacity="0" result="BackgroundImageFix"/>
<feBlend mode="normal" in="SourceGraphic" in2="BackgroundImageFix" result="shape"/>
<feColorMatrix in="SourceAlpha" type="matrix" values="0 0 0 0 0 0 0 0 0 0 0 0 0 0 0 0 0 0 127 0" result="hardAlpha"/>
<feOffset/>
<feGaussianBlur stdDeviation="0.311033"/>
<feComposite in2="hardAlpha" operator="arithmetic" k2="-1" k3="1"/>
<feColorMatrix type="matrix" values="0 0 0 0 1 0 0 0 0 1 0 0 0 0 1 0 0 0 1 0"/>
<feBlend mode="normal" in2="shape" result="effect1_innerShadow_33_11099"/>
</filter>
<filter id="filter6_f_33_11099" x="22.3385" y="11.302" width="8.82047" height="9.7501" filterUnits="userSpaceOnUse" color-interpolation-filters="sRGB">
<feFlood flood-opacity="0" result="BackgroundImageFix"/>
<feBlend mode="normal" in="SourceGraphic" in2="BackgroundImageFix" result="shape"/>
<feGaussianBlur stdDeviation="1.33744" result="effect1_foregroundBlur_33_11099"/>
</filter>
<linearGradient id="paint0_linear_33_11099" x1="17.6126" y1="39.9444" x2="41.4674" y2="5.53262" gradientUnits="userSpaceOnUse">
<stop stop-color="#00CCDF"/>
<stop offset="1" stop-color="#B0F0F7"/>
</linearGradient>
<linearGradient id="paint1_linear_33_11099" x1="5.20116" y1="33.436" x2="31.95" y2="2.97208" gradientUnits="userSpaceOnUse">
<stop stop-color="#00AFC0"/>
<stop offset="1" stop-color="#00FBFF"/>
</linearGradient>
<linearGradient id="paint2_linear_33_11099" x1="25.8155" y1="15.5516" x2="26.7139" y2="14.8829" gradientUnits="userSpaceOnUse">
<stop stop-color="#D387FE"/>
<stop offset="1" stop-color="#F3DDFF"/>
</linearGradient>
<linearGradient id="paint3_linear_33_11099" x1="24.5716" y1="28.6149" x2="34.8357" y2="22.3943" gradientUnits="userSpaceOnUse">
<stop stop-color="#00CCDF"/>
<stop offset="1" stop-color="white"/>
</linearGradient>
<linearGradient id="paint4_linear_33_11099" x1="27.3561" y1="16.4002" x2="31.7253" y2="15.2405" gradientUnits="userSpaceOnUse">
<stop stop-color="#A300FF"/>
<stop offset="1" stop-color="#E9C3FF"/>
</linearGradient>
<clipPath id="clip0_33_11099">
<rect width="53.4977" height="53.4977" rx="12.4413" fill="white"/>
</clipPath>
</defs>
</svg>
