<svg width="200" height="37" viewBox="0 0 200 37" fill="none" xmlns="http://www.w3.org/2000/svg">
<path d="M0 27.3069V0.401917H10.3305C15.4958 0.401917 18.6744 3.6143 18.6744 8.03154C18.6744 10.8425 17.0851 12.449 16.2904 13.2521C17.8797 14.0552 19.4691 16.0631 19.4691 19.2756C19.4691 24.0944 15.8931 27.3069 11.1252 27.3069H0ZM5.16527 11.2443H9.9332C11.9198 11.2443 13.5092 10.0394 13.5092 8.03154C13.5092 6.02371 11.9198 4.81905 9.9332 4.81905H5.16527V11.2443ZM5.16527 22.4881H10.3305C12.7145 22.4881 13.9065 20.8817 13.9065 18.8739C13.9065 16.8661 12.7145 15.6614 10.3305 15.6614H5.16527V22.4881Z" fill="#00CEE4"/>
<path d="M21.8528 27.307V9.63792H26.2234V11.6458C27.018 10.0395 29.0047 9.23645 30.9913 9.23645H32.1833V13.6536H30.1967C27.4154 13.6536 26.2234 15.2598 26.2234 18.0707V27.307H21.8528Z" fill="#00CEE4"/>
<path d="M34.1702 21.6846C34.1702 18.4721 36.5541 16.4643 40.1301 16.4643H44.1034C44.898 16.4643 45.6927 16.0628 45.6927 15.2596C45.6927 14.4565 44.5007 13.2518 42.5141 13.2518C40.5274 13.2518 39.3355 14.4564 38.5408 15.6611L34.9648 13.2518C36.1568 10.8424 38.5408 8.83441 42.1167 8.83441C47.282 8.83441 50.0633 12.4485 50.0633 16.0626V26.9049H45.6927V25.7003C44.898 26.5034 43.3087 27.3066 40.9248 27.3066C36.9515 27.7082 34.1702 24.8971 34.1702 21.6846ZM45.2954 20.48L40.9248 20.0782C39.7328 20.0782 38.9381 20.8815 38.9381 21.6846C38.9381 22.8893 39.7328 23.6924 41.3221 23.6924C44.1034 23.6924 45.2954 22.0862 45.2954 20.48Z" fill="#00CEE4"/>
<path d="M53.6389 27.307V9.63792H58.0095V11.2443C58.8042 10.4412 60.3935 9.23645 62.7775 9.23645C66.7507 9.23645 69.532 12.0472 69.532 16.0629V27.307H64.7641V17.2678C64.7641 15.26 63.5721 13.6536 61.5855 13.6536C59.5988 13.6536 58.4069 15.26 58.4069 17.2678V27.307H53.6389Z" fill="#00CEE4"/>
<path d="M86.6174 0.401917H91.3854V27.307H86.6174V26.5038C85.0281 27.3069 83.4388 27.7084 81.8495 27.7084C76.6842 27.7084 72.7109 23.2912 72.7109 18.4724C72.7109 13.6536 76.6842 9.23644 81.8495 9.23644C83.4388 9.23644 85.4254 9.63796 86.6174 10.4411V0.401917ZM86.6174 18.4724C86.6174 15.6615 84.6308 13.6536 81.8495 13.6536C79.0682 13.6536 77.0815 15.6615 77.0815 18.4724C77.0815 21.2834 79.0682 23.2913 81.8495 23.2913C84.6308 22.8897 86.6174 20.8818 86.6174 18.4724Z" fill="#00CEE4"/>
<path d="M93.769 3.21293C93.769 1.60667 94.961 0.401917 96.9477 0.401917C98.537 0.401917 100.126 1.60667 100.126 3.21293C100.126 4.8192 98.9343 6.02371 96.9477 6.02371C94.961 6.02371 93.769 4.8192 93.769 3.21293ZM94.5637 9.63791H99.3317V27.3069H94.5637V9.63791Z" fill="#00CEE4"/>
<path d="M102.51 27.307V9.63792H106.881V11.2443C107.676 10.4412 109.265 9.23645 111.649 9.23645C115.622 9.23645 118.403 12.0472 118.403 16.0629V27.307H113.635V17.2678C113.635 15.26 112.443 13.6536 110.457 13.6536C108.47 13.6536 107.278 15.26 107.278 17.2678V27.307H102.51Z" fill="#00CEE4"/>
<path d="M135.489 9.63759H140.256V27.3066C140.256 32.527 136.283 36.5426 130.721 36.5426C126.747 36.5426 123.966 34.5346 122.774 32.1252L126.35 29.3145C127.145 30.5192 128.734 31.7238 130.721 31.7238C133.899 31.7238 135.489 29.716 135.489 27.3066V26.1017C133.899 26.9049 132.31 27.3066 130.721 27.3066C125.555 27.3066 121.582 22.8892 121.582 18.0704C121.582 13.2516 125.555 8.83441 130.721 8.83441C132.31 8.83441 134.297 9.23593 135.489 10.0391V9.63759ZM135.489 18.4721C135.489 15.6611 133.502 13.6533 130.721 13.6533C127.939 13.6533 125.953 15.6611 125.953 18.4721C125.953 21.2831 127.939 23.291 130.721 23.291C133.502 22.8894 135.489 20.8815 135.489 18.4721Z" fill="#00CEE4"/>
<path d="M143.038 24.4958C143.038 22.8896 144.23 21.6848 146.216 21.6848C148.203 21.6848 149.395 22.8896 149.395 24.4958C149.395 26.1021 148.203 27.3069 146.216 27.3069C144.23 27.7084 143.038 26.1021 143.038 24.4958Z" fill="#00CEE4"/>
<path d="M158.137 27.3068C154.163 27.3068 151.779 25.2989 151.779 20.4801V6.10352e-05H156.547V20.4801C156.547 21.6848 157.342 22.8894 158.931 22.8894V27.3068H158.137Z" fill="#00CEE4"/>
<path d="M160.917 21.6846C160.917 18.4721 163.301 16.4643 166.877 16.4643H170.851C171.645 16.4643 172.44 16.0628 172.44 15.2596C172.44 14.4565 171.248 13.2518 169.261 13.2518C167.275 13.2518 166.083 14.4564 165.288 15.6611L161.712 13.2518C162.904 10.8424 165.288 8.83441 168.864 8.83441C174.029 8.83441 176.811 12.4485 176.811 16.0626V26.9049H172.44V25.7003C171.645 26.5034 170.056 27.3066 167.672 27.3066C163.301 27.7082 160.917 24.8971 160.917 21.6846ZM172.043 20.48L167.672 20.0782C166.48 20.0782 165.685 20.8815 165.685 21.6846C165.685 22.8893 166.48 23.6924 168.069 23.6924C170.453 23.6924 172.043 22.0862 172.043 20.48Z" fill="#00CEE4"/>
<path d="M199.061 18.4724C199.061 23.2912 195.088 27.7084 189.923 27.7084C188.333 27.7084 186.347 27.3069 185.155 26.5038V27.307H180.387V0.401917H185.155V10.4411C186.744 9.63796 188.333 9.23644 189.923 9.23644C195.088 9.23644 199.061 13.2521 199.061 18.4724ZM194.293 18.4724C194.293 15.6615 192.307 13.6536 189.525 13.6536C186.744 13.6536 184.757 15.6615 184.757 18.4724C184.757 21.2834 186.744 23.2913 189.525 23.2913C192.307 22.8897 194.293 20.8818 194.293 18.4724Z" fill="#00CEE4"/>
</svg>
